<svg width="99" height="69" viewBox="0 0 99 69" fill="none" xmlns="http://www.w3.org/2000/svg">
<path d="M56.3299 68.4171C45.6569 68.2923 39.2548 57.5043 36.964 49.072C36.3618 47.1994 35.3772 44.347 32.3494 44.4149C28.8211 44.6103 28.6836 47.6038 27.6716 49.7885C26.1261 55.0346 20.7745 61.2794 15.8739 60.9781C3.79018 60.4381 -0.928906 40.3521 0.149113 29.4772C0.231615 25.0074 2.67366 18.4884 7.14524 21.3897C11.4903 24.6763 7.30199 34.7098 14.6886 35.4751C21.5472 35.4344 17.2434 19.7124 24.4348 12.6182C30.0532 6.38148 38.0393 9.49981 40.9983 15.0173C44.0839 20.1358 44.6724 26.2639 46.6084 31.9198C47.307 34.7885 51.0773 36.6964 53.5441 33.9634C54.2976 33.1275 54.6468 32.0935 54.8641 31.2847C55.4086 29.2791 55.8266 27.2409 56.2336 25.2733C57.1329 20.9011 57.9854 16.7705 60.0892 12.8678C64.2638 4.58484 75.275 -3.96955 85.2741 1.98758C92.801 5.94996 98.7906 17.5331 97.9931 26.0441C97.8419 27.9167 97.3909 29.4067 96.6126 30.5981C94.9378 33.2496 91.5168 33.8847 89.7677 31.0785C88.7007 29.2357 88.3487 26.5299 85.5052 25.9545C83.6131 25.618 81.9686 26.7226 81.1023 28.7499C79.9446 31.491 79.9528 34.0258 79.3368 36.7669C78.5888 40.0345 78.1405 43.199 77.2302 46.453C74.5434 57.4391 67.9516 68.143 56.3271 68.4144L56.3299 68.4171Z" fill="white"/>
</svg>
